<svg width="155" height="100" viewBox="0 0 155 100" fill="none" xmlns="http://www.w3.org/2000/svg">
<g clip-path="url(#clip0_4_162)">
<path d="M44.4721 66.6778L44.127 66.476L42.8727 65.7531V63.9121V59.5409V33.7255V27.7487V25.9078L44.127 25.1848L44.4721 24.9831L51.5937 20.8809H30.9781V33.7255H30.9949V39.5678H14.3779V21.2339H0V72.0998H14.3779V51.7904H30.9949V59.5409H30.9781V72.0998H30.9949H44.127H53.8834L44.4721 66.6778Z" fill="#808184"/>
<path d="M154.949 59.5829V59.5409H125.259V51.4962H154.949V39.7696H125.259V33.7255H154.949V20.8809H107.792L105.528 22.1838L110.385 24.9831L110.873 25.2605L111.984 25.9078V27.7487V33.7255V59.5409V63.9121V65.7531L110.873 66.4004L110.385 66.6778L100.973 72.0998H110.873H154.949H155V59.5829H154.949Z" fill="#808184"/>
<path d="M102.329 24.0331L98.2208 26.4036L97.1097 27.0425L95.9901 26.4036L86.4188 20.8891L85.375 20.2839L84.2638 19.645V13.6178L77.42 9.67529L57.983 20.8807L46.0715 27.7486V63.912L60.2811 72.0996L77.42 81.9853L94.5674 72.0996L108.777 63.912V27.7486L102.312 24.0331H102.329ZM77.1002 45.9816L83.7756 42.14L84.1965 41.8962L84.6258 42.14L98.0946 49.8989L98.5239 50.1427V59.3138L98.1367 59.5408L98.103 59.5576L77.521 71.4271L77.1002 71.6625L76.6793 71.4271L56.0973 59.5576L56.0637 59.5408L54.8262 58.8263L56.0889 58.0949L63.1937 54.0011L63.6146 53.7573L64.0439 54.0011L73.6488 59.5408L77.0917 61.5247L80.5263 59.5408L88.8769 54.7325L77.0917 47.9319L70.4163 51.7819L69.987 52.0257L69.5661 51.7819L56.0889 44.0146L55.668 43.7708V34.608L56.0889 34.3643L57.1917 33.7254L76.6793 22.5031L77.1002 22.2594L77.521 22.5031L97.0086 33.7254L98.103 34.3643L99.3741 35.0956L98.1114 35.8185L91.0066 39.9123L90.5857 40.1561L90.1564 39.9123L79.4151 33.717L77.1002 32.3888L74.7852 33.717L65.315 39.181L77.1002 45.9732V45.9816Z" fill="#102086"/>
<path d="M98.5239 58.8263L98.5323 59.3139L98.1366 59.5324L98.103 59.5492L77.521 71.4188L77.1001 71.6541L76.6792 71.4188L56.0973 59.5492L56.0636 59.5324L54.8346 58.8263L56.0973 58.095L63.2021 53.9927L63.623 53.749L64.0523 53.9927L73.6572 59.5324L77.1001 61.5163L80.5347 59.5324L88.8853 54.7241L77.1001 47.9319L70.4247 51.7819L69.9954 52.0257L69.5745 51.7819L56.0973 44.0146L55.6764 43.7624V34.6081L56.0973 34.3559L57.2001 33.7254L76.6792 22.5032L77.1001 22.251L77.521 22.5032L97.0002 33.7254L98.0946 34.3559L99.3741 35.0956L98.103 35.8186L90.9982 39.9124L90.5773 40.1646L90.1564 39.9124L79.4151 33.7254L77.1001 32.3888L74.7852 33.7254L65.315 39.1894L77.1001 45.9816L83.784 42.14L84.1965 41.8878L84.6258 42.14L98.0946 49.8989L98.5239 50.1427V58.8263Z" fill="white"/>
<path d="M97.1097 0L86.4946 6.1197V18.3591L90.8635 20.8894L97.1097 24.4872L100.115 22.7555L101.706 21.8393L103.305 20.9146L103.339 20.8978L107.708 18.3675V6.1197L97.1012 0H97.1097ZM103.701 14.3241H99.1889V18.8215H95.022V14.3241H90.51V10.1547H95.022V5.64896H99.1889V10.1547H103.701V14.3241Z" fill="#808184"/>
<path d="M103.701 10.1546V14.3241H99.1889V18.8214H95.022V14.3241H90.51V10.1546H95.022V5.64893H99.1889V10.1546H103.701Z" fill="white"/>
<path d="M6.75961 85.3818H0.976471V99.7984H6.75961C11.4232 99.7984 14.6388 96.6461 14.6388 92.5943V92.5523C14.6388 88.4921 11.4147 85.3902 6.75961 85.3902V85.3818ZM11.2296 92.628C11.2296 95.1835 9.42811 96.9319 6.75961 96.9319H4.23422V88.2399H6.75961C9.42811 88.2399 11.2296 90.0305 11.2296 92.5859V92.628Z" fill="#808184"/>
<path d="M29.4545 93.9477H36.4498V91.1233H29.4545V88.2063H37.401V85.3818H26.2135V99.7984H37.5104V96.974H29.4545V93.9477Z" fill="#808184"/>
<path d="M49.0767 99.7984H52.3345V94.2167H59.414V91.3334H52.3345V88.2652H60.3736V85.3818H49.0767V99.7984Z" fill="#808184"/>
<path d="M74.8862 93.9477H81.8731V91.1233H74.8862V88.2063H82.8328V85.3818H77.9419H76.9234H71.6453V99.7984H82.9338V96.974H74.8862V93.9477Z" fill="#808184"/>
<path d="M104.467 94.2588L97.5137 85.3818H94.5085V99.7984H97.7241V90.6357L104.913 99.7984H107.683V85.3818H104.467V94.2588Z" fill="#808184"/>
<path d="M125.933 91.1649C123.365 90.526 122.734 90.215 122.734 89.2735V89.2315C122.734 88.5338 123.391 87.9789 124.645 87.9789C125.899 87.9789 127.187 88.5169 128.5 89.3996L130.192 87.0122C128.685 85.8354 126.842 85.1797 124.687 85.1797C121.656 85.1797 119.493 86.9114 119.493 89.5257V89.5677C119.493 92.4258 121.421 93.2328 124.409 93.9726C126.892 94.5946 127.397 94.9981 127.397 95.8051V95.8471C127.397 96.6878 126.589 97.2089 125.259 97.2089C123.567 97.2089 122.17 96.528 120.831 95.4605L118.904 97.7049C120.68 99.2516 122.953 100.008 125.2 100.008C128.399 100.008 130.647 98.4026 130.647 95.5361V95.4941C130.647 92.9806 128.955 91.9299 125.941 91.1733L125.933 91.1649Z" fill="#808184"/>
<path d="M145.378 93.9477H152.374V91.1233H145.378V88.2063H153.325V85.3818H142.137V99.7984H153.434V96.974H145.378V93.9477Z" fill="#808184"/>
</g>
<defs>
<clipPath id="clip0_4_162">
<rect width="155" height="100" fill="white"/>
</clipPath>
</defs>
</svg>
