<svg width="86" height="100" viewBox="0 0 86 100" fill="none" xmlns="http://www.w3.org/2000/svg">
<path d="M-2.03146e-06 53.5256L-1.09278e-06 75L28.9459 91.8283L43 100L86 75L86 25L43 -1.87959e-06L-3.27835e-06 25L-2.03146e-06 53.5256ZM46.9386 24.5656C46.9386 24.5656 47.4638 30.4583 47.4638 30.4646C49.6582 30.9746 51.7025 31.8434 53.5531 33.0081L58.0731 29.2118L63.6373 34.8149L59.8674 39.3667C61.0302 41.2302 61.8867 43.2888 62.3931 45.4986L68.2511 46.0274L68.2511 53.9537L62.3931 54.4825C61.8867 56.686 61.024 58.7509 59.8674 60.6144L63.6373 65.1662L58.0731 70.7693L53.5531 66.9731C51.7025 68.1377 49.6519 69.0128 47.4638 69.5165L46.9387 75.4155L39.0676 75.4155C39.0676 75.4155 38.5425 69.5606 38.5362 69.5165C36.3481 69.0065 34.2975 68.1377 32.4469 66.9731L28.9459 69.9131L27.9269 70.7693L22.3878 65.9154L22.8441 65.2669L26.1326 60.6145C24.976 58.7509 24.107 56.686 23.6069 54.4825L17.7489 53.9537L17.7489 46.0274L23.6069 45.4986C24.107 43.2888 24.976 41.2239 26.1326 39.3667L22.3628 34.8149L27.9269 29.2118C27.9269 29.2118 32.4219 32.9892 32.4469 33.0081C34.2975 31.8371 36.3418 30.9746 38.5362 30.4646L39.0614 24.5656L46.9324 24.5656L46.9386 24.5656Z" fill="#014ED1"/>
<path d="M31 49.9973C31 56.0745 36.1485 61 42.5009 61C50.8065 61 57.05 52.5764 52.4266 44.1774C51.5685 42.6213 50.2173 41.3287 48.5908 40.5078C39.8114 36.0785 31.0064 42.0577 31.0064 50.0034L31 49.9973Z" fill="#014ED1"/>
</svg>
