<svg width="86" height="100" viewBox="0 0 86 100" fill="none" xmlns="http://www.w3.org/2000/svg">
<g clip-path="url(#clip0_2_94)">
<path d="M0 25V75L43 100L86 75V25L43 0L0 25ZM64.8939 50.0818V50.9381C64.8939 50.9381 64.8939 50.9947 64.8814 51.0199C64.8564 51.1773 64.8689 51.3284 64.9001 51.4732L64.9314 54.9736C64.2312 55.3954 62.7495 56.176 60.355 56.963C60.0925 57.0511 59.8049 57.1393 59.5111 57.2274C59.5548 47.0977 60.8489 41.5135 61.7117 38.9071C63.7123 42.2186 64.8626 46.0652 64.8939 50.0756V50.0818ZM26.3889 36.8799C28.2707 34.4812 30.6589 32.4855 33.3222 31.0816L34.5976 47.4062H35.154L36.2105 28.5759C36.2105 28.1793 36.3606 27.8016 36.6356 27.5183C36.917 27.235 37.2858 27.0713 37.6797 27.0713L48.2703 26.9831H48.2828C49.0955 26.9831 49.7645 27.6442 49.7707 28.4878L51.0961 47.274H51.6525L52.6966 30.9116C55.3911 32.2652 57.8106 34.2168 59.7361 36.584C58.8171 38.7308 56.8665 44.8061 56.8478 57.6366C52.8404 58.5621 48.264 59.0531 43.2313 59.0909C38.1798 59.1665 33.6035 58.7195 29.5961 57.857C29.3835 45.0516 27.3329 39.0078 26.3827 36.8799H26.3889ZM24.4571 39.2282C24.6822 39.8703 24.9322 40.695 25.1886 41.7275C25.9075 44.6172 26.7703 49.6474 26.9328 57.4855C26.639 57.4037 26.3577 57.3218 26.0951 57.24C23.6944 56.4908 22.2002 55.729 21.5 55.3261L21.4625 50.4344C21.4312 46.4304 22.5128 42.5711 24.4571 39.2345V39.2282ZM43.3126 68.7988C25.5449 68.9436 7.52094 58.1214 19.1056 53.0345L19.1306 55.9997C19.1306 56.3775 19.3119 56.73 19.6182 56.9567C19.8933 57.1581 26.4889 61.9051 43.2626 61.7666C60.0362 61.6281 66.5819 56.7804 66.8507 56.5727C67.1508 56.346 67.3258 55.9872 67.3196 55.6094L67.2946 52.6568C77.8039 59.3742 61.0803 68.654 43.3126 68.7988Z" fill="#102086"/>
</g>
<defs>
<clipPath id="clip0_2_94">
<rect width="86" height="100" fill="white"/>
</clipPath>
</defs>
</svg>
