<svg width="91" height="24" viewBox="0 0 91 24" fill="none" xmlns="http://www.w3.org/2000/svg">
<path d="M89.2946 0.442871H69.6029C68.6611 0.442871 67.8974 1.20654 67.8974 2.14829V21.84C67.8974 22.7818 68.6611 23.5454 69.6029 23.5454H89.2946C90.2363 23.5454 91 22.7818 91 21.84V2.14829C91 1.20654 90.2363 0.442871 89.2946 0.442871ZM74.7833 20.125H71.3099V9.09029H74.7833V20.1234V20.125ZM73.0474 7.56295C71.942 7.56295 71.0452 6.72067 71.0452 5.56875C71.0452 4.41683 71.942 3.57455 73.0474 3.57455C74.1528 3.57455 75.0496 4.41683 75.0496 5.56875C75.0496 6.72067 74.1528 7.56295 73.0474 7.56295ZM87.5892 20.1346H84.1158V14.1087C84.1158 12.3311 83.3601 11.7824 82.3847 11.7824C81.3547 11.7824 80.3439 12.5573 80.3439 14.1536V20.1362H76.8705V9.09831H80.2108V10.6272H80.2557C80.591 9.94861 81.7654 8.78867 83.5574 8.78867C85.4955 8.78867 87.5892 9.93898 87.5892 13.3081V20.133V20.1346ZM11.5689 9.09029H15.0423V20.1234H11.5689V9.09029ZM15.3087 5.56715C15.3087 6.71907 14.4118 7.56135 13.3048 7.56135C12.1978 7.56135 11.301 6.71907 11.301 5.56715C11.301 4.41523 12.1978 3.57295 13.3048 3.57295C14.4118 3.57295 15.3087 4.41523 15.3087 5.56715ZM3.68037 16.8312H10.0031V20.133H0V3.85852H3.68037V16.8312ZM45.9661 8.74375C42.8986 8.74375 40.0637 10.8503 40.0637 14.659C40.0637 18.4677 42.8825 20.4859 46.0752 20.4859C48.4801 20.4859 50.1309 19.3725 51.0342 18.1372L48.6132 16.5826C48.2009 17.0863 47.4934 17.6944 46.1682 17.6944C44.7066 17.6944 43.744 16.8537 43.4906 15.9505C43.4312 15.7387 43.4312 15.6119 43.4312 15.6119H51.4321C51.4465 15.4788 51.4545 15.121 51.4545 14.7472C51.4545 10.8486 49.0384 8.74214 45.9693 8.74214L45.9661 8.74375ZM43.4296 13.353C43.5082 12.1819 44.4419 11.2481 45.8762 11.2481C47.3891 11.2481 48.1127 12.1819 48.1127 13.353H43.4296ZM61.01 10.2727H60.9651C60.3506 9.57319 59.2003 8.78867 57.5959 8.78867C54.8397 8.78867 52.3882 10.9513 52.3882 14.5707C52.3882 18.6249 55.2151 20.4426 57.6409 20.4426C59.6415 20.4426 60.8319 19.4271 61.2538 18.6923H61.2988V20.133H64.485V3.85852H61.0116V10.2727H61.01ZM58.5056 17.4297C57.1002 17.4297 55.8103 16.4061 55.8103 14.5723C55.8103 12.7386 57.0441 11.7583 58.5056 11.7583C59.9672 11.7583 61.2458 12.8509 61.2458 14.5948C61.2458 16.3387 59.8837 17.4313 58.5056 17.4313V17.4297ZM36.3785 14.0846L40.8113 20.133H36.4956L32.8826 14.837H32.8169V20.133H29.3435V3.85852H32.8169V13.5744H32.8826L36.4058 9.09831H40.6332L36.3785 14.083V14.0846ZM27.6236 13.3097V20.1346H24.1502V14.1087C24.1502 12.3311 23.3945 11.7824 22.4191 11.7824C21.3875 11.7824 20.3768 12.5573 20.3768 14.1536V20.1362H16.9034V9.09831H20.2452V10.6272H20.2901C20.6271 9.94861 21.7998 8.78867 23.5919 8.78867C25.5299 8.78867 27.6252 9.93898 27.6252 13.3081L27.6236 13.3097Z" fill="#9A9A9A"/>
</svg>
