<svg width="150" height="98" viewBox="0 0 150 98" fill="none" xmlns="http://www.w3.org/2000/svg">
<path d="M93.3887 18.4457H95.9939V18.1571V14.0333H100.353V9.95128H95.9939V5.53883H91.9526V9.95128H87.589V13.256V14.0333H88.9284H91.9526V15.802V17.6079V18.4457H93.3887Z" stroke="white" stroke-width="8.77" stroke-miterlimit="10"/>
<path d="M52.2478 57.6457L61.5687 52.1953L74.6134 59.81L85.2001 53.6242L74.6134 47.4431L67.7412 51.4599L53.4721 43.1284V33.6705L74.6134 21.3315L96.979 34.3826L87.6534 39.833L74.6134 32.2183L64.022 38.3994L74.6134 44.5852L81.4855 40.5731L95.75 48.8999L95.7546 58.3578L74.6134 70.6968L52.2478 57.6457Z" fill="white"/>
<path d="M74.6134 21.8062L75.023 22.0436L93.872 33.0468L94.9353 33.6658L96.1596 34.3826L94.9353 35.0994L88.0631 39.1162L87.6534 39.3536L87.2438 39.1162L76.8504 33.0468L74.6134 31.7389L72.3763 33.0468L63.2073 38.3994L74.6134 45.06L81.0759 41.2852L81.4855 41.0478L81.8952 41.2852L94.9353 48.8999L95.3449 49.1373V49.6121L95.3495 57.641V58.1204L94.9721 58.3439L94.9445 58.3625L75.0276 69.9847L74.618 70.2221L74.2083 69.9847L54.2961 58.3625L54.2685 58.3439L53.0717 57.6457L54.2961 56.9289L61.1682 52.9121L61.5779 52.6747L61.9875 52.9121L71.2901 58.3439L74.618 60.2894L77.9459 58.3439L86.024 53.6289L74.618 46.973L68.1555 50.7524L67.7458 50.9898L67.3361 50.7524L54.2961 43.133L53.8864 42.8957V33.9125L54.2961 33.6751L55.3593 33.0561L74.2083 22.0529L74.618 21.8155M74.618 20.8614L74.2083 21.0987L73.7986 21.3361L54.9497 32.3393L53.8864 32.9583L53.4767 33.1957L53.0671 33.4331V43.3704L53.4767 43.6078L53.8864 43.8452L66.9265 51.4645L67.3361 51.7019L67.7458 51.9393L68.1555 51.7019L68.5651 51.4645L74.6226 47.9271L84.3946 53.6289L77.5454 57.6271L74.6226 59.3306L71.6997 57.6271L62.3972 52.1953L61.9875 51.9579L61.5779 51.7205L61.1682 51.9579L60.7586 52.1953L53.8864 56.2121L52.662 56.9289L51.4377 57.6457L52.662 58.3625L53.8588 59.0606L53.8864 59.0746L73.8032 70.7015L74.2129 70.9389L74.6226 71.1762L75.0322 70.9389L75.4419 70.7015L95.3587 59.0793L95.3863 59.0606L95.7638 58.8372L96.1735 58.5999V58.1204V57.641V49.6121L96.1688 49.1373V48.6625L95.7592 48.4252L95.3495 48.1878L82.3095 40.5731L81.8998 40.3357L81.4901 40.0983L81.0805 40.3357L80.6708 40.5731L74.6134 44.1058L64.8414 38.3994L72.786 33.7636L74.6134 32.6977L76.4407 33.7636L86.8341 39.833L87.2438 40.0704L87.6534 40.3078L88.0631 40.0704L88.4728 39.833L95.3449 35.8162L96.5693 35.0994L97.7937 34.3826L96.5693 33.6658L95.3449 32.949L94.2816 32.33L75.4327 21.3268L75.023 21.0894L74.6134 20.8521L74.618 20.8614Z" fill="white"/>
<path d="M43.0419 65.3395L42.7013 65.1394L41.4907 64.4319V62.626V58.3392V33.0468V27.1961V25.3855L42.7013 24.678L43.0419 24.4825L49.9279 20.4611H29.9788V33.0468H29.9972V38.7764H13.9146V20.8102H0V70.6549H13.9146V50.7524H29.9972V58.3392H29.9788V70.6549H29.9972H42.7013H52.1465L43.0419 65.3395Z" fill="#73787C"/>
<path d="M149.949 58.3857V58.3392H121.218V50.4638H149.949V38.9719H121.218V33.0468H149.949V20.4611H104.311L102.125 21.7364L106.825 24.4825L107.289 24.7572L108.371 25.3855V27.1961V33.0468V58.3392V62.626V64.4319L107.289 65.0649L106.825 65.3395L97.72 70.6549H107.289H149.949H150V58.3857H149.949Z" fill="#73787C"/>
<path d="M44.5885 33.0468V62.6213L58.342 70.6503L74.9356 80.3363L91.5291 70.6503L105.283 62.6213V27.1961L99.0318 23.547L95.0549 25.8696L93.9778 26.4979L92.9008 25.8696L83.6397 20.4611L82.6316 19.8746L81.5546 19.2463V13.3444L74.9356 9.48117L56.1234 20.4611L44.5885 27.1961V33.0514V33.0468ZM74.2037 22.0436L74.6134 21.8062L75.023 22.0436L93.872 33.0468L94.9352 33.6658L96.1596 34.3826L94.9352 35.0994L88.0631 39.1162L87.6534 39.3536L87.2438 39.1162L76.8504 33.0468L74.6134 31.7389L72.3763 33.0468L63.2073 38.3994L74.6134 45.06L81.0759 41.2852L81.4855 41.0478L81.8952 41.2852L94.9352 48.8999L95.3449 49.1373V49.6121L95.3495 57.641V58.1205L94.9721 58.3439L94.9445 58.3625L75.0276 69.9847L74.618 70.2221L74.2083 69.9847L54.2961 58.3625L54.2684 58.3439L53.0717 57.6457L54.2961 56.9289L61.1682 52.9121L61.5779 52.6747L61.9875 52.9121L71.29 58.3439L74.618 60.2894L77.9459 58.3439L86.024 53.6289L74.618 46.973L68.1555 50.7524L67.7458 50.9898L67.3361 50.7524L54.2961 43.133L53.8864 42.8957V33.9125L54.2961 33.6751L55.3593 33.0561L74.2083 22.0529L74.2037 22.0436Z" fill="#102086"/>
<path d="M93.9732 23.9845L96.8777 22.2903L98.4242 21.3873L99.9708 20.4844L100.008 20.4611L104.242 17.9896V5.99497L93.9732 0L83.6995 5.99497V17.9896L87.9342 20.4611L93.9732 23.9845ZM91.9525 15.7973V14.0332H87.589V9.95127H91.9525V5.53883H95.9893V9.95127H100.353V14.0332H95.9893V18.4457H91.9525V15.8019V15.7973Z" fill="#73787C"/>
<path d="M6.54074 83.6689H0.943588V97.7952H6.54074C11.0516 97.7952 14.1678 94.7093 14.1678 90.7344V90.6925C14.1678 86.7176 11.0516 83.6689 6.54074 83.6689ZM10.8675 90.7716C10.8675 93.2711 9.12298 94.9886 6.54074 94.9886H4.10119V86.4709H6.54074C9.12298 86.4709 10.8675 88.2256 10.8675 90.7297V90.7716Z" fill="#73787C"/>
<path d="M28.5059 92.0609H35.2722V89.2961H28.5059V86.4336H36.1928V83.6689H25.3667V97.7906H36.294V95.0258H28.5059V92.0609Z" fill="#73787C"/>
<path d="M47.4929 97.7906H50.6505V92.3262H57.4997V89.5009H50.6505V86.4941H58.4203V83.6689H47.4929V97.7906Z" fill="#73787C"/>
<path d="M72.4684 92.0609H79.2347V89.2961H72.4684V86.4336H80.1553V83.6689H75.4281H74.4384H69.3292V97.7906H80.2611V95.0258H72.4684V92.0609Z" fill="#73787C"/>
<path d="M101.094 92.3634L94.3645 83.6689H91.4554V97.7906H94.5716V88.8121L101.522 97.7906H104.21V83.6689H101.094V92.3634Z" fill="#73787C"/>
<path d="M121.862 89.338C119.381 88.7143 118.765 88.4118 118.765 87.4809V87.439C118.765 86.7548 119.4 86.2102 120.61 86.2102C121.821 86.2102 123.073 86.7362 124.343 87.6019L125.982 85.2607C124.527 84.111 122.742 83.4641 120.652 83.4641C117.72 83.4641 115.625 85.1583 115.625 87.7229V87.7648C115.625 90.5715 117.49 91.3581 120.385 92.0842C122.783 92.6892 123.275 93.0942 123.275 93.8808V93.9227C123.275 94.7512 122.498 95.2539 121.204 95.2539C119.565 95.2539 118.212 94.5883 116.919 93.541L115.055 95.7379C116.776 97.2506 118.972 98 121.144 98C124.242 98 126.415 96.4268 126.415 93.6201V93.5783C126.415 91.116 124.776 90.0874 121.862 89.3427V89.338Z" fill="#73787C"/>
<path d="M140.688 92.0609H147.455V89.2961H140.688V86.4336H148.38V83.6689H137.549V97.7906H148.481V95.0258H140.688V92.0609Z" fill="#73787C"/>
</svg>
